<svg width="310" height="108" viewBox="0 0 310 108" fill="none" xmlns="http://www.w3.org/2000/svg">
<path d="M93.6664 23H107.666V83.9832H93.6664V23Z" fill="white"/>
<path fill-rule="evenodd" clip-rule="evenodd" d="M55.5001 70.0001C64.6128 70.0001 72.0001 62.6128 72.0001 53.5001C72.0001 44.3874 64.6128 37 55.5001 37C46.3874 37 39 44.3874 39 53.5001C39 62.6128 46.3874 70.0001 55.5001 70.0001ZM55.5001 84.0001C72.3448 84.0001 86.0001 70.3448 86.0001 53.5001C86.0001 36.6553 72.3448 23 55.5001 23C38.6553 23 25 36.6553 25 53.5001C25 70.3448 38.6553 84.0001 55.5001 84.0001Z" fill="white"/>
<path fill-rule="evenodd" clip-rule="evenodd" d="M166.232 37.5855H178.232V43.3632C183.196 40.5364 189.337 39.0772 196.186 39.0772V51.0772C189.714 51.0772 185.147 52.7873 182.334 55.0288C179.613 57.1971 178.232 60.0673 178.232 63.4055V83.9832H166.232V37.5855Z" fill="white"/>
<path fill-rule="evenodd" clip-rule="evenodd" d="M283.071 52.2488H270.864L270.784 51.8551C270.608 50.9892 270.23 50.2112 269.645 49.5155L269.641 49.5109C269.06 48.8028 268.288 48.2329 267.31 47.8065L267.3 47.802C266.36 47.3669 265.212 47.1392 263.84 47.1392C262.002 47.1392 260.488 47.5215 259.273 48.2581L259.268 48.2609C258.08 48.9637 257.542 49.8582 257.542 50.9645C257.542 51.8547 257.897 52.6025 258.642 53.2345C259.393 53.8702 260.745 54.4263 262.785 54.8569L270.826 56.4463C275.193 57.3261 278.513 58.7532 280.728 60.7685C282.963 62.8019 284.07 65.4734 284.07 68.7345C284.07 71.6954 283.178 74.3097 281.39 76.5569C279.632 78.7912 277.224 80.5231 274.187 81.7616L274.185 81.7622C271.163 82.9834 267.692 83.5876 263.782 83.5876C257.835 83.5876 253.037 82.373 249.435 79.8933L249.432 79.8915C247.661 78.6552 246.204 77.295 245.128 75.5535C244.052 73.8109 243.376 71.7163 243.121 69.0354L243.07 68.5005H256.149L256.23 68.8923C256.573 70.5368 257.391 71.7641 258.679 72.6135C259.983 73.4544 261.682 73.8939 263.811 73.8939C265.912 73.8939 267.544 73.4977 268.75 72.7498C269.966 71.9888 270.524 71.0613 270.543 69.9558C270.524 69.0175 270.129 68.2578 269.32 67.6457L269.315 67.6418C268.479 66.9928 267.142 66.4641 265.246 66.0919L257.551 64.5875C253.158 63.7252 249.82 62.2186 247.602 60.0232L247.601 60.0216C245.397 57.8193 244.305 55.0138 244.305 51.6458C244.305 48.7516 245.104 46.2333 246.718 44.1147L246.72 44.1123C248.346 42.0047 250.615 40.3938 253.501 39.2687C256.407 38.1436 259.79 37.5875 263.638 37.5875C269.315 37.5875 273.849 38.7642 277.184 41.1744C280.524 43.5747 283.071 47.6558 283.071 51.7593V52.2488Z" fill="white"/>
<path fill-rule="evenodd" clip-rule="evenodd" d="M147.16 80.9139V83.9832H159.16V37.5875H147.16V41.0651C143.786 39.1129 139.871 37.9958 135.694 37.9958C123.016 37.9958 112.738 48.2904 112.738 60.9895C112.738 73.6886 123.016 83.9832 135.694 83.9832C139.871 83.9832 143.786 82.8661 147.16 80.9139ZM146.65 60.9895C146.65 67.0797 141.726 71.9831 135.694 71.9831C129.662 71.9831 124.738 67.0797 124.738 60.9895C124.738 54.8993 129.662 49.9959 135.694 49.9959C141.726 49.9959 146.65 54.8993 146.65 60.9895Z" fill="white"/>
<path fill-rule="evenodd" clip-rule="evenodd" d="M218.662 37.5875C206.96 37.5875 197.473 47.0738 197.473 58.7759V62.8118C197.473 74.5138 206.96 84.0002 218.662 84.0002H220.594C229.823 84.0002 237.674 78.0998 240.58 69.8656H227.69C225.853 72.3153 222.925 73.9003 219.628 73.9003C214.401 73.9003 210.104 69.9181 209.606 64.8221L241.689 64.8221C241.751 64.1604 241.783 63.4898 241.783 62.8118V58.7759C241.783 47.0739 232.297 37.5875 220.594 37.5875H218.662ZM229.499 55.7439C228.571 51.1407 224.504 47.6744 219.628 47.6744C214.751 47.6744 210.684 51.1407 209.756 55.7439H229.499Z" fill="white"/>
</svg>
